<svg xmlns="http://www.w3.org/2000/svg" xmlns:xlink="http://www.w3.org/1999/xlink" width="205" zoomAndPan="magnify" viewBox="0 0 153.75 153.750002" height="205" preserveAspectRatio="xMidYMid meet" version="1.0"><defs><clipPath id="5273bcaaab"><path d="M 0 12 L 152.75 12 L 152.75 48 L 0 48 Z M 0 12 " clip-rule="nonzero"/></clipPath><clipPath id="e8343e6f6b"><path d="M 0 47 L 152.75 47 L 152.75 152.75 L 0 152.75 Z M 0 47 " clip-rule="nonzero"/></clipPath><clipPath id="700989669a"><path d="M 20.179688 62.46875 L 124.59375 62.46875 L 124.59375 136.578125 L 20.179688 136.578125 Z M 20.179688 62.46875 " clip-rule="nonzero"/></clipPath><clipPath id="42a02bb393"><path d="M 20.527344 97.722656 C 26.519531 79.980469 32.085938 75.535156 33.667969 72.90625 C 34.402344 71.667969 33.980469 71.011719 34.90625 69.96875 C 36.839844 67.800781 43.179688 63.78125 47.507812 62.816406 C 51.527344 61.886719 59.839844 63.703125 59.917969 63.703125 C 59.917969 63.703125 60.921875 63.667969 61.425781 63.628906 C 61.925781 63.628906 62.894531 63.589844 62.933594 63.589844 C 62.933594 63.589844 63.898438 63.78125 64.402344 63.898438 C 64.902344 64.015625 65.832031 64.207031 65.871094 64.207031 C 65.871094 64.207031 66.757812 64.632812 67.222656 64.863281 C 67.6875 65.097656 68.574219 65.523438 68.574219 65.523438 C 68.613281 65.523438 69.347656 66.140625 69.734375 66.488281 C 70.121094 66.796875 70.894531 67.414062 70.894531 67.453125 C 70.933594 67.453125 71.511719 68.226562 71.824219 68.652344 C 72.09375 69.039062 72.710938 69.851562 72.710938 69.851562 C 72.710938 69.890625 73.097656 70.777344 73.292969 71.242188 C 73.484375 71.707031 73.871094 72.632812 73.871094 72.632812 C 73.871094 72.671875 74.027344 73.640625 74.101562 74.140625 C 74.179688 74.605469 74.335938 75.609375 74.335938 75.609375 C 74.335938 75.648438 73.949219 76.886719 74.21875 77.042969 C 75.03125 77.542969 80.90625 71.9375 84.886719 70.585938 C 89.257812 69.117188 94.824219 68.652344 99.5 69.078125 C 103.945312 69.503906 108.816406 70.199219 112.371094 72.828125 C 116.355469 75.765625 119.792969 82.027344 121.613281 86.820312 C 123.234375 91.152344 123.660156 96.71875 123.46875 100.117188 C 123.351562 102.246094 122.074219 103.328125 122.074219 105.296875 C 122.074219 107.851562 124.859375 110.980469 124.550781 114.265625 C 124.125 118.558594 120.722656 124.859375 117.4375 128.609375 C 114.382812 132.125 109.628906 135.796875 105.878906 136.496094 C 102.785156 137.035156 97.644531 134.136719 96.832031 134.289062 C 96.679688 134.289062 96.71875 134.367188 96.5625 134.445312 C 95.441406 134.753906 85.660156 136.070312 80.945312 134.675781 C 76.34375 133.285156 71.898438 125.902344 68.5 126.210938 C 65.832031 126.445312 64.710938 131.429688 61.847656 132.667969 C 58.488281 134.136719 53.304688 134.253906 48.9375 133.246094 C 43.835938 132.046875 34.789062 126.519531 33.398438 124.859375 C 33.089844 124.433594 33.320312 124.007812 33.089844 123.777344 C 32.894531 123.582031 32.625 123.738281 32.238281 123.503906 C 30.652344 122.617188 24.199219 118.597656 22.1875 114.691406 C 19.90625 110.285156 20.527344 97.722656 20.527344 97.722656 " clip-rule="nonzero"/></clipPath></defs><g clip-path="url(#5273bcaaab)"><path fill="#2196f3" d="M 152.808594 35.019531 L 152.808594 47.753906 L 0 47.753906 L 0 35.019531 C 0 34.289062 0.0351562 33.5625 0.105469 32.835938 C 0.179688 32.109375 0.285156 31.386719 0.429688 30.671875 C 0.570312 29.957031 0.746094 29.25 0.960938 28.550781 C 1.171875 27.851562 1.417969 27.164062 1.695312 26.492188 C 1.976562 25.816406 2.289062 25.15625 2.632812 24.515625 C 2.976562 23.871094 3.351562 23.246094 3.753906 22.636719 C 4.160156 22.03125 4.59375 21.445312 5.058594 20.882812 C 5.519531 20.316406 6.011719 19.777344 6.527344 19.261719 C 7.042969 18.746094 7.582031 18.253906 8.148438 17.792969 C 8.710938 17.328125 9.296875 16.894531 9.902344 16.488281 C 10.511719 16.085938 11.136719 15.710938 11.78125 15.367188 C 12.421875 15.023438 13.082031 14.710938 13.757812 14.429688 C 14.429688 14.152344 15.117188 13.90625 15.816406 13.695312 C 16.515625 13.480469 17.222656 13.304688 17.9375 13.164062 C 18.652344 13.019531 19.375 12.914062 20.101562 12.839844 C 20.828125 12.769531 21.554688 12.734375 22.285156 12.734375 L 130.523438 12.734375 C 131.253906 12.734375 131.984375 12.769531 132.710938 12.839844 C 133.4375 12.914062 134.15625 13.019531 134.871094 13.164062 C 135.589844 13.304688 136.296875 13.480469 136.996094 13.695312 C 137.691406 13.90625 138.378906 14.152344 139.054688 14.429688 C 139.726562 14.710938 140.386719 15.023438 141.03125 15.367188 C 141.675781 15.710938 142.300781 16.085938 142.90625 16.488281 C 143.511719 16.894531 144.097656 17.328125 144.664062 17.792969 C 145.226562 18.253906 145.765625 18.746094 146.28125 19.261719 C 146.800781 19.777344 147.289062 20.316406 147.75 20.882812 C 148.214844 21.445312 148.648438 22.03125 149.054688 22.636719 C 149.460938 23.246094 149.835938 23.871094 150.179688 24.515625 C 150.523438 25.15625 150.835938 25.816406 151.113281 26.492188 C 151.394531 27.164062 151.640625 27.851562 151.851562 28.550781 C 152.0625 29.25 152.238281 29.957031 152.382812 30.671875 C 152.523438 31.386719 152.632812 32.109375 152.703125 32.835938 C 152.773438 33.5625 152.808594 34.289062 152.808594 35.019531 Z M 152.808594 35.019531 " fill-opacity="1" fill-rule="nonzero"/></g><g clip-path="url(#e8343e6f6b)"><path fill="#eceff1" d="M 152.808594 47.753906 L 152.808594 130.523438 C 152.808594 131.253906 152.773438 131.984375 152.703125 132.710938 C 152.632812 133.4375 152.523438 134.15625 152.382812 134.871094 C 152.238281 135.589844 152.0625 136.296875 151.851562 136.996094 C 151.640625 137.691406 151.394531 138.378906 151.113281 139.054688 C 150.835938 139.726562 150.523438 140.386719 150.179688 141.03125 C 149.835938 141.675781 149.460938 142.300781 149.054688 142.90625 C 148.648438 143.511719 148.214844 144.097656 147.75 144.664062 C 147.289062 145.226562 146.800781 145.765625 146.28125 146.28125 C 145.765625 146.800781 145.226562 147.289062 144.664062 147.75 C 144.097656 148.214844 143.511719 148.648438 142.90625 149.054688 C 142.300781 149.460938 141.675781 149.835938 141.03125 150.179688 C 140.386719 150.523438 139.726562 150.835938 139.054688 151.113281 C 138.378906 151.394531 137.691406 151.640625 136.996094 151.851562 C 136.296875 152.0625 135.589844 152.238281 134.871094 152.382812 C 134.15625 152.523438 133.4375 152.632812 132.710938 152.703125 C 131.984375 152.773438 131.253906 152.808594 130.523438 152.808594 L 22.285156 152.808594 C 21.554688 152.808594 20.828125 152.773438 20.101562 152.703125 C 19.375 152.632812 18.652344 152.523438 17.9375 152.382812 C 17.222656 152.238281 16.515625 152.0625 15.816406 151.851562 C 15.117188 151.640625 14.429688 151.394531 13.757812 151.113281 C 13.082031 150.835938 12.421875 150.523438 11.78125 150.179688 C 11.136719 149.835938 10.511719 149.460938 9.902344 149.054688 C 9.296875 148.648438 8.710938 148.214844 8.148438 147.75 C 7.582031 147.289062 7.042969 146.800781 6.527344 146.28125 C 6.011719 145.765625 5.519531 145.226562 5.058594 144.664062 C 4.59375 144.097656 4.160156 143.511719 3.753906 142.90625 C 3.351562 142.300781 2.976562 141.675781 2.632812 141.03125 C 2.289062 140.386719 1.976562 139.726562 1.695312 139.054688 C 1.417969 138.378906 1.171875 137.691406 0.960938 136.996094 C 0.746094 136.296875 0.570312 135.589844 0.429688 134.871094 C 0.285156 134.15625 0.179688 133.4375 0.105469 132.710938 C 0.0351562 131.984375 0 131.253906 0 130.523438 L 0 47.753906 Z M 152.808594 47.753906 " fill-opacity="1" fill-rule="nonzero"/></g><path fill="#ffb800" d="M 41.386719 0 C 40.964844 0 40.558594 0.0820312 40.167969 0.242188 C 39.777344 0.402344 39.433594 0.632812 39.136719 0.933594 C 38.835938 1.230469 38.605469 1.574219 38.445312 1.964844 C 38.285156 2.355469 38.203125 2.761719 38.203125 3.183594 L 38.203125 28.652344 C 38.203125 29.074219 38.285156 29.480469 38.445312 29.871094 C 38.605469 30.261719 38.835938 30.605469 39.136719 30.902344 C 39.433594 31.203125 39.777344 31.429688 40.167969 31.59375 C 40.558594 31.753906 40.964844 31.835938 41.386719 31.835938 C 41.808594 31.835938 42.214844 31.753906 42.605469 31.59375 C 42.996094 31.429688 43.339844 31.203125 43.636719 30.902344 C 43.9375 30.605469 44.164062 30.261719 44.328125 29.871094 C 44.488281 29.480469 44.570312 29.074219 44.570312 28.652344 L 44.570312 3.183594 C 44.570312 2.761719 44.488281 2.355469 44.328125 1.964844 C 44.164062 1.574219 43.9375 1.230469 43.636719 0.933594 C 43.339844 0.632812 42.996094 0.402344 42.605469 0.242188 C 42.214844 0.0820312 41.808594 0 41.386719 0 Z M 41.386719 0 " fill-opacity="1" fill-rule="nonzero"/><path fill="#ffb800" d="M 111.425781 0 C 111 0 110.597656 0.0820312 110.207031 0.242188 C 109.816406 0.402344 109.472656 0.632812 109.171875 0.933594 C 108.875 1.230469 108.644531 1.574219 108.484375 1.964844 C 108.320312 2.355469 108.242188 2.761719 108.242188 3.183594 L 108.242188 28.652344 C 108.242188 29.074219 108.320312 29.480469 108.484375 29.871094 C 108.644531 30.261719 108.875 30.605469 109.171875 30.902344 C 109.472656 31.203125 109.816406 31.429688 110.207031 31.59375 C 110.597656 31.753906 111 31.835938 111.425781 31.835938 C 111.847656 31.835938 112.253906 31.753906 112.640625 31.59375 C 113.03125 31.429688 113.375 31.203125 113.675781 30.902344 C 113.972656 30.605469 114.203125 30.261719 114.363281 29.871094 C 114.527344 29.480469 114.609375 29.074219 114.609375 28.652344 L 114.609375 3.183594 C 114.609375 2.761719 114.527344 2.355469 114.363281 1.964844 C 114.203125 1.574219 113.972656 1.230469 113.675781 0.933594 C 113.375 0.632812 113.03125 0.402344 112.640625 0.242188 C 112.253906 0.0820312 111.847656 0 111.425781 0 Z M 111.425781 0 " fill-opacity="1" fill-rule="nonzero"/><path fill="#2196f3" d="M 54.121094 127.339844 C 53.597656 127.339844 53.078125 127.316406 52.558594 127.265625 C 52.042969 127.214844 51.527344 127.136719 51.015625 127.035156 C 50.503906 126.933594 50 126.808594 49.5 126.65625 C 49 126.503906 48.511719 126.328125 48.027344 126.128906 C 47.546875 125.929688 47.078125 125.707031 46.617188 125.460938 C 46.15625 125.214844 45.710938 124.949219 45.277344 124.660156 C 44.84375 124.371094 44.425781 124.058594 44.023438 123.730469 C 43.621094 123.398438 43.234375 123.046875 42.863281 122.679688 C 42.496094 122.3125 42.144531 121.925781 41.816406 121.523438 C 41.484375 121.121094 41.175781 120.699219 40.886719 120.265625 C 40.59375 119.835938 40.328125 119.386719 40.082031 118.925781 C 39.835938 118.46875 39.613281 117.996094 39.414062 117.515625 C 39.214844 117.035156 39.039062 116.542969 38.886719 116.042969 C 38.738281 115.546875 38.609375 115.039062 38.507812 114.53125 C 38.40625 114.019531 38.332031 113.503906 38.277344 112.984375 C 38.226562 112.464844 38.203125 111.945312 38.203125 111.425781 C 38.203125 111 38.285156 110.597656 38.445312 110.207031 C 38.605469 109.816406 38.835938 109.472656 39.136719 109.171875 C 39.433594 108.875 39.777344 108.644531 40.167969 108.484375 C 40.558594 108.320312 40.964844 108.242188 41.386719 108.242188 C 41.808594 108.242188 42.214844 108.320312 42.605469 108.484375 C 42.996094 108.644531 43.339844 108.875 43.636719 109.171875 C 43.9375 109.472656 44.164062 109.816406 44.328125 110.207031 C 44.488281 110.597656 44.570312 111 44.570312 111.425781 C 44.570312 112.050781 44.628906 112.671875 44.753906 113.289062 C 44.875 113.902344 45.054688 114.5 45.296875 115.078125 C 45.535156 115.660156 45.832031 116.207031 46.179688 116.730469 C 46.527344 117.25 46.921875 117.734375 47.367188 118.175781 C 47.808594 118.621094 48.292969 119.015625 48.8125 119.363281 C 49.335938 119.714844 49.886719 120.007812 50.464844 120.246094 C 51.042969 120.488281 51.640625 120.667969 52.257812 120.792969 C 52.871094 120.914062 53.492188 120.976562 54.121094 120.976562 C 54.746094 120.976562 55.367188 120.914062 55.984375 120.792969 C 56.597656 120.667969 57.195312 120.488281 57.773438 120.246094 C 58.355469 120.007812 58.90625 119.714844 59.425781 119.363281 C 59.949219 119.015625 60.429688 118.621094 60.875 118.175781 C 61.316406 117.734375 61.714844 117.25 62.0625 116.730469 C 62.410156 116.207031 62.703125 115.660156 62.945312 115.078125 C 63.183594 114.5 63.363281 113.902344 63.488281 113.289062 C 63.609375 112.671875 63.671875 112.050781 63.671875 111.425781 C 63.671875 110.796875 63.609375 110.175781 63.488281 109.5625 C 63.363281 108.945312 63.183594 108.347656 62.945312 107.769531 C 62.703125 107.191406 62.410156 106.640625 62.0625 106.117188 C 61.714844 105.597656 61.316406 105.113281 60.875 104.671875 C 60.429688 104.226562 59.949219 103.832031 59.425781 103.484375 C 58.90625 103.132812 58.355469 102.839844 57.773438 102.601562 C 57.195312 102.359375 56.597656 102.179688 55.984375 102.058594 C 55.367188 101.933594 54.746094 101.875 54.121094 101.875 L 47.753906 101.875 C 47.332031 101.875 46.925781 101.792969 46.535156 101.632812 C 46.144531 101.46875 45.800781 101.238281 45.503906 100.941406 C 45.203125 100.640625 44.972656 100.296875 44.8125 99.90625 C 44.648438 99.519531 44.570312 99.113281 44.570312 98.691406 C 44.570312 98.269531 44.648438 97.863281 44.8125 97.472656 C 44.972656 97.082031 45.203125 96.738281 45.503906 96.4375 C 45.800781 96.140625 46.144531 95.910156 46.535156 95.75 C 46.925781 95.585938 47.332031 95.507812 47.753906 95.507812 L 54.121094 95.507812 C 54.746094 95.507812 55.367188 95.445312 55.984375 95.324219 C 56.597656 95.199219 57.195312 95.019531 57.773438 94.78125 C 58.355469 94.539062 58.90625 94.246094 59.425781 93.898438 C 59.949219 93.546875 60.429688 93.152344 60.875 92.710938 C 61.316406 92.265625 61.714844 91.78125 62.0625 91.261719 C 62.410156 90.742188 62.703125 90.191406 62.945312 89.609375 C 63.183594 89.03125 63.363281 88.433594 63.488281 87.820312 C 63.609375 87.203125 63.671875 86.582031 63.671875 85.957031 C 63.671875 85.328125 63.609375 84.707031 63.488281 84.09375 C 63.363281 83.476562 63.183594 82.878906 62.945312 82.300781 C 62.703125 81.722656 62.410156 81.171875 62.0625 80.648438 C 61.714844 80.128906 61.316406 79.644531 60.875 79.203125 C 60.429688 78.757812 59.949219 78.363281 59.425781 78.015625 C 58.90625 77.667969 58.355469 77.371094 57.773438 77.132812 C 57.195312 76.890625 56.597656 76.710938 55.984375 76.589844 C 55.367188 76.464844 54.746094 76.40625 54.121094 76.40625 C 53.492188 76.40625 52.871094 76.464844 52.257812 76.589844 C 51.640625 76.710938 51.042969 76.890625 50.464844 77.132812 C 49.886719 77.371094 49.335938 77.667969 48.8125 78.015625 C 48.292969 78.363281 47.808594 78.757812 47.367188 79.203125 C 46.921875 79.644531 46.527344 80.128906 46.179688 80.648438 C 45.832031 81.171875 45.535156 81.722656 45.296875 82.300781 C 45.054688 82.878906 44.875 83.476562 44.753906 84.09375 C 44.628906 84.707031 44.570312 85.328125 44.570312 85.957031 C 44.570312 86.378906 44.488281 86.785156 44.328125 87.175781 C 44.164062 87.5625 43.9375 87.910156 43.636719 88.207031 C 43.339844 88.503906 42.996094 88.734375 42.605469 88.898438 C 42.214844 89.058594 41.808594 89.140625 41.386719 89.140625 C 40.964844 89.140625 40.558594 89.058594 40.167969 88.898438 C 39.777344 88.734375 39.433594 88.503906 39.136719 88.207031 C 38.835938 87.910156 38.605469 87.5625 38.445312 87.175781 C 38.285156 86.785156 38.203125 86.378906 38.203125 85.957031 C 38.203125 85.28125 38.246094 84.605469 38.332031 83.9375 C 38.417969 83.265625 38.542969 82.605469 38.714844 81.953125 C 38.882812 81.296875 39.09375 80.65625 39.347656 80.03125 C 39.597656 79.402344 39.886719 78.792969 40.21875 78.203125 C 40.546875 77.613281 40.910156 77.046875 41.3125 76.503906 C 41.714844 75.960938 42.148438 75.445312 42.613281 74.957031 C 43.082031 74.46875 43.578125 74.011719 44.101562 73.585938 C 44.628906 73.160156 45.175781 72.769531 45.75 72.414062 C 46.328125 72.058594 46.921875 71.742188 47.535156 71.464844 C 48.152344 71.183594 48.78125 70.945312 49.425781 70.746094 C 50.074219 70.546875 50.726562 70.390625 51.394531 70.273438 C 52.058594 70.15625 52.730469 70.085938 53.40625 70.054688 C 54.078125 70.023438 54.753906 70.035156 55.425781 70.089844 C 56.101562 70.148438 56.765625 70.246094 57.429688 70.386719 C 58.089844 70.527344 58.738281 70.707031 59.375 70.929688 C 60.011719 71.152344 60.632812 71.417969 61.238281 71.71875 C 61.84375 72.019531 62.425781 72.359375 62.988281 72.734375 C 63.546875 73.113281 64.082031 73.523438 64.589844 73.96875 C 65.101562 74.410156 65.578125 74.886719 66.027344 75.390625 C 66.476562 75.898438 66.890625 76.429688 67.269531 76.988281 C 67.652344 77.546875 67.996094 78.125 68.300781 78.726562 C 68.609375 79.328125 68.875 79.949219 69.105469 80.582031 C 69.332031 81.21875 69.519531 81.867188 69.664062 82.527344 C 69.808594 83.1875 69.914062 83.851562 69.972656 84.527344 C 70.035156 85.199219 70.050781 85.871094 70.027344 86.546875 C 70 87.222656 69.933594 87.894531 69.824219 88.558594 C 69.710938 89.226562 69.558594 89.882812 69.367188 90.53125 C 69.171875 91.179688 68.9375 91.808594 68.664062 92.425781 C 68.386719 93.042969 68.074219 93.640625 67.726562 94.21875 C 67.375 94.796875 66.988281 95.347656 66.566406 95.878906 C 66.144531 96.40625 65.691406 96.90625 65.207031 97.375 C 64.722656 97.847656 64.210938 98.285156 63.671875 98.691406 C 64.335938 99.1875 64.957031 99.734375 65.535156 100.328125 C 66.113281 100.925781 66.640625 101.5625 67.121094 102.238281 C 67.601562 102.917969 68.023438 103.628906 68.390625 104.371094 C 68.757812 105.117188 69.066406 105.886719 69.3125 106.679688 C 69.5625 107.46875 69.746094 108.277344 69.867188 109.097656 C 69.988281 109.917969 70.046875 110.746094 70.039062 111.574219 C 70.03125 112.40625 69.957031 113.230469 69.820312 114.046875 C 69.683594 114.867188 69.484375 115.671875 69.222656 116.457031 C 68.957031 117.246094 68.636719 118.007812 68.253906 118.746094 C 67.871094 119.480469 67.4375 120.183594 66.945312 120.851562 C 66.453125 121.523438 65.910156 122.148438 65.320312 122.734375 C 64.734375 123.316406 64.101562 123.851562 63.425781 124.335938 C 62.753906 124.824219 62.046875 125.253906 61.304688 125.628906 C 60.566406 126.003906 59.800781 126.316406 59.011719 126.570312 C 58.21875 126.828125 57.414062 127.019531 56.59375 127.148438 C 55.777344 127.277344 54.949219 127.339844 54.121094 127.339844 Z M 54.121094 127.339844 " fill-opacity="1" fill-rule="nonzero"/><path fill="#2196f3" d="M 98.691406 127.339844 C 98.269531 127.339844 97.863281 127.261719 97.472656 127.097656 C 97.082031 126.9375 96.738281 126.707031 96.4375 126.410156 C 96.140625 126.109375 95.910156 125.765625 95.75 125.375 C 95.585938 124.988281 95.507812 124.582031 95.507812 124.160156 L 95.507812 80.90625 L 88.210938 88.203125 C 87.910156 88.492188 87.566406 88.714844 87.179688 88.871094 C 86.789062 89.023438 86.386719 89.101562 85.96875 89.097656 C 85.554688 89.09375 85.152344 89.011719 84.765625 88.847656 C 84.382812 88.6875 84.042969 88.460938 83.746094 88.164062 C 83.453125 87.871094 83.222656 87.53125 83.0625 87.144531 C 82.902344 86.757812 82.816406 86.359375 82.816406 85.941406 C 82.8125 85.523438 82.886719 85.121094 83.042969 84.734375 C 83.195312 84.347656 83.417969 84.003906 83.707031 83.703125 L 96.441406 70.96875 C 96.898438 70.511719 97.441406 70.222656 98.074219 70.097656 C 98.703125 69.972656 99.316406 70.035156 99.910156 70.28125 C 100.503906 70.527344 100.980469 70.917969 101.335938 71.453125 C 101.695312 71.988281 101.875 72.578125 101.875 73.222656 L 101.875 124.160156 C 101.875 124.582031 101.792969 124.988281 101.632812 125.375 C 101.46875 125.765625 101.238281 126.109375 100.941406 126.410156 C 100.640625 126.707031 100.296875 126.9375 99.90625 127.097656 C 99.519531 127.261719 99.113281 127.339844 98.691406 127.339844 Z M 98.691406 127.339844 " fill-opacity="1" fill-rule="nonzero"/><path fill="#2196f3" d="M 111.425781 127.339844 L 85.957031 127.339844 C 85.535156 127.339844 85.128906 127.261719 84.738281 127.097656 C 84.347656 126.9375 84.003906 126.707031 83.703125 126.410156 C 83.40625 126.109375 83.175781 125.765625 83.015625 125.375 C 82.851562 124.988281 82.773438 124.582031 82.773438 124.160156 C 82.773438 123.734375 82.851562 123.328125 83.015625 122.941406 C 83.175781 122.550781 83.40625 122.207031 83.703125 121.90625 C 84.003906 121.609375 84.347656 121.378906 84.738281 121.21875 C 85.128906 121.054688 85.535156 120.976562 85.957031 120.976562 L 111.425781 120.976562 C 111.847656 120.976562 112.253906 121.054688 112.640625 121.21875 C 113.03125 121.378906 113.375 121.609375 113.675781 121.90625 C 113.972656 122.207031 114.203125 122.550781 114.363281 122.941406 C 114.527344 123.328125 114.609375 123.734375 114.609375 124.160156 C 114.609375 124.582031 114.527344 124.988281 114.363281 125.375 C 114.203125 125.765625 113.972656 126.109375 113.675781 126.410156 C 113.375 126.707031 113.03125 126.9375 112.640625 127.097656 C 112.253906 127.261719 111.847656 127.339844 111.425781 127.339844 Z M 111.425781 127.339844 " fill-opacity="1" fill-rule="nonzero"/><g clip-path="url(#700989669a)"><g clip-path="url(#42a02bb393)"><path fill="#edeff1" d="M 18.980469 61.269531 L 126.09375 61.269531 L 126.09375 138.078125 L 18.980469 138.078125 Z M 18.980469 61.269531 " fill-opacity="1" fill-rule="nonzero"/></g></g></svg>