<svg xmlns="http://www.w3.org/2000/svg" xmlns:xlink="http://www.w3.org/1999/xlink" width="35" zoomAndPan="magnify" viewBox="0 0 26.25 26.249998" height="35" preserveAspectRatio="xMidYMid meet" version="1.0"><defs><clipPath id="7e4c88f792"><path d="M 2.570312 6.816406 L 3.882812 6.816406 L 3.882812 7.984375 L 2.570312 7.984375 Z M 2.570312 6.816406 " clip-rule="nonzero"/></clipPath><clipPath id="926724b1ae"><path d="M 3.875 7.230469 C 3.296875 8.210938 2.742188 8.019531 2.628906 7.828125 C 2.511719 7.613281 2.605469 7.039062 2.789062 6.871094 C 2.972656 6.730469 3.710938 6.945312 3.710938 6.945312 " clip-rule="nonzero"/></clipPath><clipPath id="6d218c0528"><path d="M 0 0 L 24.792969 0 L 24.792969 24.792969 L 0 24.792969 Z M 0 0 " clip-rule="nonzero"/></clipPath><clipPath id="8eb6ec3c42"><path d="M 2 0 L 24.792969 0 L 24.792969 23 L 2 23 Z M 2 0 " clip-rule="nonzero"/></clipPath></defs><g clip-path="url(#7e4c88f792)"><g clip-path="url(#926724b1ae)"><path fill="#e7191f" d="M 1.707031 5.917969 L 4.820312 5.917969 L 4.820312 9.042969 L 1.707031 9.042969 Z M 1.707031 5.917969 " fill-opacity="1" fill-rule="nonzero"/></g></g><g clip-path="url(#6d218c0528)"><path fill="#00bf63" d="M 24.855469 12.679688 C 24.855469 13.492188 24.773438 14.300781 24.617188 15.101562 C 24.457031 15.898438 24.222656 16.675781 23.910156 17.425781 C 23.597656 18.179688 23.214844 18.894531 22.761719 19.574219 C 22.308594 20.25 21.796875 20.875 21.21875 21.453125 C 20.644531 22.027344 20.015625 22.542969 19.339844 22.996094 C 18.664062 23.449219 17.949219 23.832031 17.195312 24.144531 C 16.441406 24.453125 15.664062 24.691406 14.867188 24.847656 C 14.066406 25.007812 13.261719 25.085938 12.445312 25.085938 C 11.632812 25.085938 10.824219 25.007812 10.027344 24.847656 C 9.226562 24.691406 8.449219 24.453125 7.699219 24.144531 C 6.945312 23.832031 6.230469 23.449219 5.554688 22.996094 C 4.875 22.542969 4.25 22.027344 3.671875 21.453125 C 3.097656 20.875 2.582031 20.25 2.128906 19.574219 C 1.675781 18.894531 1.292969 18.179688 0.984375 17.425781 C 0.671875 16.675781 0.4375 15.898438 0.277344 15.101562 C 0.117188 14.300781 0.0390625 13.492188 0.0390625 12.679688 C 0.0390625 11.863281 0.117188 11.058594 0.277344 10.257812 C 0.4375 9.460938 0.671875 8.683594 0.984375 7.929688 C 1.292969 7.179688 1.675781 6.464844 2.128906 5.785156 C 2.582031 5.109375 3.097656 4.480469 3.671875 3.90625 C 4.25 3.328125 4.875 2.816406 5.554688 2.363281 C 6.230469 1.910156 6.945312 1.527344 7.699219 1.214844 C 8.449219 0.902344 9.226562 0.667969 10.027344 0.507812 C 10.824219 0.351562 11.632812 0.269531 12.445312 0.269531 C 13.261719 0.269531 14.066406 0.351562 14.867188 0.507812 C 15.664062 0.667969 16.441406 0.902344 17.195312 1.214844 C 17.949219 1.527344 18.664062 1.910156 19.339844 2.363281 C 20.015625 2.816406 20.644531 3.328125 21.21875 3.90625 C 21.796875 4.480469 22.308594 5.109375 22.761719 5.785156 C 23.214844 6.464844 23.597656 7.179688 23.910156 7.929688 C 24.222656 8.683594 24.457031 9.460938 24.617188 10.257812 C 24.773438 11.058594 24.855469 11.863281 24.855469 12.679688 Z M 24.855469 12.679688 " fill-opacity="1" fill-rule="nonzero"/></g><g clip-path="url(#8eb6ec3c42)"><path fill="#ffffff" d="M 20.878906 12.949219 L 20.878906 12.171875 L 22.535156 12.171875 C 22.460938 10.171875 21.839844 8.359375 20.679688 6.734375 C 21.894531 5.210938 25.03125 0.910156 24.742188 0.421875 C 24.488281 -0.0078125 20.003906 2.617188 18.105469 4.210938 C 16.484375 3.113281 14.695312 2.535156 12.738281 2.484375 L 12.738281 4.035156 L 11.949219 4.035156 L 11.949219 2.484375 C 6.746094 2.738281 2.570312 6.953125 2.378906 12.171875 L 3.8125 12.171875 L 3.8125 12.949219 L 2.378906 12.949219 C 2.582031 18.175781 6.746094 22.378906 11.957031 22.632812 L 11.957031 21.09375 L 12.738281 21.09375 L 12.738281 22.632812 C 18.042969 22.484375 22.324219 18.238281 22.527344 12.949219 Z M 20.878906 12.949219 " fill-opacity="1" fill-rule="nonzero"/></g><path fill="#384158" d="M 11.699219 11.8125 L 8.023438 8.894531 L 6.746094 10.171875 L 12.535156 16.652344 C 15.125 11.75 19.671875 5.761719 23.253906 1.792969 C 21.167969 2.78125 14.804688 8.386719 11.703125 11.8125 Z M 11.699219 11.8125 " fill-opacity="1" fill-rule="evenodd"/></svg>