<svg width="30" height="30" viewBox="0 0 30 30" fill="none" xmlns="http://www.w3.org/2000/svg">
<path d="M24.375 21.875C24.375 22.7038 24.0458 23.4987 23.4597 24.0847C22.8737 24.6708 22.0788 25 21.25 25C20.4212 25 19.6263 24.6708 19.0403 24.0847C18.4542 23.4987 18.125 22.7038 18.125 21.875C18.125 21.0462 18.4542 20.2513 19.0403 19.6653C19.6263 19.0792 20.4212 18.75 21.25 18.75C22.0788 18.75 22.8737 19.0792 23.4597 19.6653C24.0458 20.2513 24.375 21.0462 24.375 21.875ZM11.875 21.875C11.875 22.7038 11.5458 23.4987 10.9597 24.0847C10.3737 24.6708 9.5788 25 8.75 25C7.9212 25 7.12634 24.6708 6.54029 24.0847C5.95424 23.4987 5.625 22.7038 5.625 21.875C5.625 21.0462 5.95424 20.2513 6.54029 19.6653C7.12634 19.0792 7.9212 18.75 8.75 18.75C9.5788 18.75 10.3737 19.0792 10.9597 19.6653C11.5458 20.2513 11.875 21.0462 11.875 21.875Z" stroke="#2301F4" stroke-width="1.5" stroke-linecap="round" stroke-linejoin="round"/>
<path d="M18.125 21.875H11.875M24.375 21.875H25.3288C25.6038 21.875 25.7412 21.875 25.8562 21.86C26.2701 21.8085 26.6549 21.6205 26.9499 21.3257C27.2448 21.031 27.4332 20.6463 27.485 20.2325C27.5 20.1163 27.5 19.9787 27.5 19.7037V16.25C27.5 14.0951 26.644 12.0285 25.1202 10.5048C23.5965 8.98102 21.5299 8.125 19.375 8.125M2.5 5H15C16.7675 5 17.6513 5 18.2 5.55C18.75 6.0975 18.75 6.98125 18.75 8.75V19.375M2.5 15.9375V18.75C2.5 19.9188 2.5 20.5025 2.75125 20.9375C2.91581 21.2225 3.15249 21.4592 3.4375 21.6237C3.8725 21.875 4.45625 21.875 5.625 21.875M2.5 8.75H10M2.5 12.5H7.5" stroke="#2301F4" stroke-width="1.5" stroke-linecap="round" stroke-linejoin="round"/>
</svg>
