<svg width="35" height="35" viewBox="0 0 35 35" fill="none" xmlns="http://www.w3.org/2000/svg">
<path d="M7.93331 11.6084L8.69164 10.8355C9.53748 9.98966 10.9375 9.98966 11.8125 10.8938L11.8416 10.9376C12.5562 11.6667 13.5041 12.0167 14.5396 12.1188C15.9541 12.2501 17.325 13.0084 18.2291 14.3792C19.2208 15.9542 19.2062 18.0542 18.1708 19.6147C17.7803 20.2322 17.2551 20.7535 16.6346 21.1394C16.0141 21.5252 15.3143 21.7657 14.5877 21.8429C13.8611 21.92 13.1265 21.8318 12.4388 21.5849C11.7511 21.3379 11.1282 20.9385 10.6166 20.4167C9.79998 19.6147 9.33331 18.5792 9.21664 17.5001C9.09998 16.4355 8.67706 15.4292 7.93331 14.6855C7.08748 13.8542 7.08748 12.4542 7.93331 11.6084ZM14.0583 23.3334C12.3521 23.3334 10.7625 22.6772 9.58123 21.4667C8.56039 20.4167 7.91873 19.1042 7.75831 17.6751C7.71456 17.2376 7.58331 16.6688 7.23331 16.1438C6.35831 17.3542 5.83331 18.8126 5.83331 20.4167C5.83331 22.8084 6.99998 24.923 8.79373 26.2501H27.7083V24.7917C27.7083 19.5417 24.2229 15.0938 19.4541 13.6355C20.7521 15.6772 20.7229 18.4042 19.3958 20.4167C18.2291 22.2397 16.2166 23.3334 14.0583 23.3334ZM21.5541 11.0251H23.4062C24.675 11.0251 25.7833 11.9147 25.7833 13.5042V14.5834H27.6062V13.1251C27.6062 10.9376 25.6666 9.27508 23.4062 9.27508H21.5541C20.3437 9.27508 19.3083 8.07925 19.3083 6.85425C19.3083 5.62925 20.3437 4.72508 21.5541 4.72508V2.91675C19.3083 2.91675 17.5 4.72508 17.5 6.97092C17.5 9.21675 19.3083 11.0251 21.5541 11.0251ZM6.56248 11.0105C6.64998 10.8647 6.76664 10.7188 6.89789 10.573L7.65623 9.81466C7.78748 9.68341 7.93331 9.58133 8.07914 9.47925L6.02289 7.39383C6.22706 7.00008 6.15414 6.48966 5.83331 6.15425C5.62447 5.95096 5.34454 5.83721 5.0531 5.83721C4.76166 5.83721 4.48173 5.95096 4.27289 6.15425C4.06873 6.35841 3.96664 6.60633 3.95206 6.86883C3.68956 6.88341 3.44164 6.9855 3.23748 7.18966C2.81456 7.61258 2.81456 8.31258 3.23748 8.75008C3.57289 9.07091 4.06873 9.14383 4.47706 8.93966L6.56248 11.0105ZM26.8187 6.40216C27.5625 5.65841 28.0291 4.65216 28.0291 3.52925H26.2062C26.2062 4.73966 25.1854 5.7605 23.975 5.7605V7.56883C26.6875 7.56883 28.8166 9.7855 28.8166 12.498V16.0417H30.625V12.498C30.6323 11.2259 30.2785 9.97785 29.6047 8.89881C28.931 7.81977 27.9649 6.95404 26.8187 6.40216ZM7.29164 30.6251H27.7083C29.3271 30.6251 30.625 29.3272 30.625 27.7084H4.37498C4.37498 28.482 4.68227 29.2238 5.22925 29.7708C5.77623 30.3178 6.51809 30.6251 7.29164 30.6251Z" fill="#F6921E"/>
</svg>
