<svg xmlns="http://www.w3.org/2000/svg" xmlns:xlink="http://www.w3.org/1999/xlink" width="28" zoomAndPan="magnify" viewBox="0 0 21 20.999999" height="28" preserveAspectRatio="xMidYMid meet" version="1.0"><defs><clipPath id="df12b88b79"><path d="M 17.425781 10.125 L 17.832031 10.125 L 17.832031 10.378906 L 17.425781 10.378906 Z M 17.425781 10.125 " clip-rule="nonzero"/></clipPath><clipPath id="a9964decb6"><path d="M 17.8125 10.292969 C 17.0625 10.519531 17.660156 10.144531 17.660156 10.144531 " clip-rule="nonzero"/></clipPath></defs><path fill="#bc5242" d="M 20.800781 10.398438 C 20.800781 16.144531 16.144531 20.800781 10.402344 20.800781 C 4.65625 20.800781 0 16.144531 0 10.398438 C 0 4.65625 4.65625 0 10.402344 0 C 16.144531 0 20.800781 4.65625 20.800781 10.398438 Z M 20.800781 10.398438 " fill-opacity="1" fill-rule="nonzero"/><path fill="#ffffff" d="M 13.503906 6.273438 C 13.503906 7.253906 13.042969 8.132812 12.328125 8.703125 C 11.800781 9.121094 11.128906 9.375 10.402344 9.375 C 9.671875 9.375 9 9.121094 8.472656 8.699219 C 7.757812 8.132812 7.296875 7.253906 7.296875 6.273438 C 7.296875 4.558594 8.6875 3.171875 10.402344 3.171875 C 12.113281 3.171875 13.503906 4.558594 13.503906 6.273438 Z M 13.503906 6.273438 " fill-opacity="1" fill-rule="nonzero"/><path fill="#ffffff" d="M 14.160156 11.84375 C 14.328125 12.089844 14.328125 12.414062 14.160156 12.664062 L 13.710938 13.324219 L 11.125 17.132812 L 11.003906 17.308594 C 10.714844 17.738281 10.085938 17.738281 9.796875 17.3125 L 9.675781 17.132812 L 7.089844 13.324219 L 6.640625 12.664062 C 6.472656 12.414062 6.472656 12.089844 6.640625 11.84375 L 7.089844 11.183594 L 8.472656 9.144531 C 9 9.566406 9.671875 9.820312 10.402344 9.820312 C 11.128906 9.820312 11.800781 9.566406 12.328125 9.148438 L 13.710938 11.183594 Z M 14.160156 11.84375 " fill-opacity="1" fill-rule="nonzero"/><path fill="#bc5242" d="M 10.402344 10.308594 L 10.808594 10.308594 C 10.988281 10.308594 11.101562 10.503906 11.011719 10.660156 L 10.808594 11.011719 L 10.601562 11.367188 C 10.511719 11.523438 10.289062 11.523438 10.199219 11.367188 L 9.992188 11.011719 L 9.789062 10.660156 C 9.699219 10.503906 9.8125 10.308594 9.992188 10.308594 Z M 10.402344 10.308594 " fill-opacity="1" fill-rule="nonzero"/><path fill="#bc5242" d="M 10.753906 14.828125 L 10.402344 15.398438 L 10.046875 14.828125 L 10.1875 10.898438 L 10.613281 10.898438 Z M 10.753906 14.828125 " fill-opacity="1" fill-rule="nonzero"/><g clip-path="url(#df12b88b79)"><g clip-path="url(#a9964decb6)"><path fill="#bc5242" d="M 14.0625 7.144531 L 20.816406 7.144531 L 20.816406 13.667969 L 14.0625 13.667969 Z M 14.0625 7.144531 " fill-opacity="1" fill-rule="nonzero"/></g></g></svg>