<svg width="214" height="163" viewBox="0 0 214 163" fill="none" xmlns="http://www.w3.org/2000/svg">
<path d="M211.847 149.483L163.975 86.5796C161.114 82.8212 156.671 80.6176 151.954 80.6176H61.7587C57.0415 80.6176 52.5983 82.8212 49.7375 86.5796L1.87045 149.483C-2.15543 154.775 1.60959 162.396 8.25273 162.396H205.464C212.107 162.392 215.872 154.77 211.847 149.483Z" fill="url(#paint0_linear_39_2125)"/>
<path d="M4.5658 149.614C3.30065 149.614 2.12679 149.989 1.13989 150.629C-1.6078 155.807 2.07897 162.392 8.25256 162.392H205.464C211.638 162.392 215.324 155.807 212.577 150.629C211.59 149.989 210.416 149.614 209.151 149.614H4.5658Z" fill="#C9CDD3"/>
<path d="M86.3094 112.967L120.56 149.614H106.561L76.2491 117.378L86.3094 112.967Z" fill="white"/>
<path d="M157.558 81.7063C155.797 81.0008 153.902 80.6219 151.958 80.6219H134.559L14.0307 133.505L1.87042 149.483C1.68348 149.732 1.51827 149.984 1.36176 150.237L157.558 81.7063Z" fill="#FEE379"/>
<path d="M1.36603 150.237L76.2491 117.378L106.561 149.614L1.36603 150.237Z" fill="#86ADFF"/>
<path d="M14.0306 133.505L134.559 80.6219H61.7586C57.0415 80.6219 52.5982 82.8256 49.7375 86.584L14.0306 133.505Z" fill="#69CA9F"/>
<path d="M181.065 109.038L177.366 104.178L154.828 114.047L134.185 91.958L124.26 96.313L144.893 118.393L106.856 135.046L111.212 139.615L149.189 122.992L174.07 149.614H188.065L159.123 118.641L181.065 109.038Z" fill="#C9CDD3"/>
<path opacity="0.3" d="M166.066 89.3276L163.975 86.5796C161.114 82.8212 156.671 80.6176 151.954 80.6176H106.856V115.161L166.066 89.3276Z" fill="url(#paint1_linear_39_2125)"/>
<path d="M101.704 0.43312C84.4793 2.74128 71.3104 16.5684 69.7061 33.9014C68.6018 45.8254 73.0972 56.7216 80.862 64.2732C83.8532 67.1824 86.6313 70.2875 89.179 73.5624C96.4091 82.8517 101.361 93.7131 103.922 105.206L105.982 114.456C106.074 114.87 106.439 115.161 106.861 115.161C107.282 115.161 107.648 114.87 107.739 114.456L109.926 104.622C112.413 93.4474 117.182 82.8778 124.164 73.815C126.655 70.5836 129.386 67.5395 132.372 64.7392C139.637 57.9236 144.181 48.2294 144.181 37.4681C144.176 15.1226 124.612 -2.64152 101.704 0.43312Z" fill="url(#paint2_linear_39_2125)"/>
<path d="M115.037 48.6038C119.555 44.0782 119.555 36.7407 115.037 32.2151C110.519 27.6894 103.194 27.6895 98.6761 32.2151C94.1582 36.7407 94.1582 44.0782 98.6761 48.6038C103.194 53.1294 110.519 53.1294 115.037 48.6038Z" fill="white"/>
<defs>
<linearGradient id="paint0_linear_39_2125" x1="16.8568" y1="67.7852" x2="171.066" y2="195.75" gradientUnits="userSpaceOnUse">
<stop stop-color="#F6F8FF"/>
<stop offset="1" stop-color="#DEE0ED"/>
</linearGradient>
<linearGradient id="paint1_linear_39_2125" x1="177.484" y1="59.9008" x2="99.659" y2="107.307" gradientUnits="userSpaceOnUse">
<stop/>
<stop offset="1"/>
</linearGradient>
<linearGradient id="paint2_linear_39_2125" x1="117.531" y1="77.849" x2="90.1587" y2="-14.1264" gradientUnits="userSpaceOnUse">
<stop stop-color="#5565EE"/>
<stop offset="0.3091" stop-color="#5F75FF"/>
<stop offset="0.5137" stop-color="#6E89FA"/>
<stop offset="0.7638" stop-color="#6E89FA"/>
<stop offset="1" stop-color="#7D99FD"/>
</linearGradient>
</defs>
</svg>
