<?xml version="1.0" encoding="UTF-8"?>
<svg width="24px" height="24px" viewBox="0 0 24 24" version="1.1" xmlns="http://www.w3.org/2000/svg">
    <g stroke="none" stroke-width="1" fill="none" fill-rule="evenodd">
        <path d="M12,2 C17.5228475,2 22,6.4771525 22,12 C22,17.5228475 17.5228475,22 12,22 C6.4771525,22 2,17.5228475 2,12 C2,6.4771525 6.4771525,2 12,2 Z M12,4 C7.581722,4 4,7.581722 4,12 C4,16.418278 7.581722,20 12,20 C16.418278,20 20,16.418278 20,12 C20,7.581722 16.418278,4 12,4 Z M13.4142136,12 L16.7071068,15.2928932 L15.2928932,16.7071068 L12,13.4142136 L8.70710678,16.7071068 L7.29289322,15.2928932 L10.5857864,12 L7.29289322,8.70710678 L8.70710678,7.29289322 L12,10.5857864 L15.2928932,7.29289322 L16.7071068,8.70710678 L13.4142136,12 Z" fill="#000000"/>
    </g>
</svg>
