<svg width="35" height="35" viewBox="0 0 35 35" fill="none" xmlns="http://www.w3.org/2000/svg">
<path d="M17.5 2.91675C9.47913 2.91675 2.91663 9.47925 2.91663 17.5001C2.91663 25.5209 9.47913 32.0834 17.5 32.0834C25.5208 32.0834 32.0833 25.5209 32.0833 17.5001C32.0833 9.47925 25.5208 2.91675 17.5 2.91675ZM14 25.0834C13.6791 25.0834 13.2416 24.9667 12.8333 24.7917L12.002 26.8334L10.3395 26.2501L10.5729 25.6813C12.3229 21.2772 14.3354 16.2605 21.875 14.5834C21.875 14.5834 13.125 14.5834 10.2812 22.6772C10.2812 22.6772 8.74996 21.1459 8.74996 19.3959C8.74996 17.6459 10.5 13.9272 14.875 13.0522C16.1145 12.8042 17.5 12.6147 18.8708 12.3959C22.3125 11.9292 25.6229 11.4626 26.25 10.2084C26.25 10.2084 23.625 25.0834 14 25.0834Z" fill="#019934"/>
</svg>
