<svg width="33" height="33" viewBox="0 0 33 33" fill="none" xmlns="http://www.w3.org/2000/svg">
<g clip-path="url(#clip0_14_1516)">
<path fill-rule="evenodd" clip-rule="evenodd" d="M15.5347 3.01811C16.1571 2.78482 16.8429 2.78482 17.4653 3.01811L27.0903 6.62748C27.6145 6.82401 28.0664 7.17591 28.3853 7.63612C28.7042 8.09633 28.8751 8.64294 28.875 9.20286V16.577C28.875 18.8752 28.2351 21.128 27.0269 23.083C25.8187 25.038 24.0899 26.6179 22.0344 27.6457L17.4226 29.9502C17.1362 30.0935 16.8203 30.1681 16.5 30.1681C16.1797 30.1681 15.8638 30.0935 15.5774 29.9502L10.9656 27.6444C8.91005 26.6165 7.18131 25.0366 5.9731 23.0816C4.76489 21.1266 4.12495 18.8738 4.125 16.5756V9.20423C4.12465 8.64408 4.29537 8.09717 4.61432 7.63669C4.93327 7.1762 5.38523 6.8241 5.90975 6.62748L15.5347 3.01811ZM17.875 16.1315C18.3992 15.8288 18.8089 15.3616 19.0406 14.8023C19.2722 14.243 19.3128 13.6229 19.1562 13.0382C18.9995 12.4535 18.6543 11.9368 18.174 11.5683C17.6938 11.1998 17.1053 11 16.5 11C15.8947 11 15.3062 11.1998 14.826 11.5683C14.3457 11.9368 14.0005 12.4535 13.8438 13.0382C13.6872 13.6229 13.7278 14.243 13.9594 14.8023C14.1911 15.3616 14.6008 15.8288 15.125 16.1315V20.625C15.125 20.9897 15.2699 21.3394 15.5277 21.5973C15.7856 21.8551 16.1353 22 16.5 22C16.8647 22 17.2144 21.8551 17.4723 21.5973C17.7301 21.3394 17.875 20.9897 17.875 20.625V16.1315Z" fill="#FC0000"/>
</g>
<defs>
<clipPath id="clip0_14_1516">
<rect width="33" height="33" fill="white"/>
</clipPath>
</defs>
</svg>
