<svg width="32" height="33" viewBox="0 0 32 33" fill="none" xmlns="http://www.w3.org/2000/svg">
<path fill-rule="evenodd" clip-rule="evenodd" d="M16.0693 1.71875H15.9306C14.732 1.71875 13.7333 1.71875 12.9413 1.82875C12.104 1.94425 11.348 2.2 10.7413 2.82563C10.1333 3.45263 9.88529 4.23225 9.77329 5.09437C9.69729 5.6815 9.67463 7.08263 9.66929 8.28438C6.97329 8.3765 5.35329 8.701 4.22929 9.8615C2.66663 11.4716 2.66663 14.0649 2.66663 19.25C2.66663 24.4351 2.66663 27.0284 4.22929 28.6385C5.79063 30.25 8.30529 30.25 13.3333 30.25H18.6666C23.6946 30.25 26.2093 30.25 27.7706 28.6385C29.3333 27.0284 29.3333 24.4351 29.3333 19.25C29.3333 14.0649 29.3333 11.4716 27.7706 9.8615C26.6466 8.701 25.0266 8.3765 22.3306 8.28575C22.3253 7.08263 22.304 5.6815 22.2266 5.09575C22.1146 4.23225 21.8666 3.45263 21.2586 2.827C20.652 2.2 19.896 1.94425 19.0586 1.82875C18.2666 1.71875 17.2666 1.71875 16.0693 1.71875ZM20.3306 8.25275C20.324 7.08812 20.3053 5.8355 20.2453 5.36937C20.1613 4.7355 20.0186 4.46325 19.8453 4.2845C19.672 4.10575 19.408 3.95862 18.792 3.872C18.1493 3.784 17.2853 3.78125 16 3.78125C14.7146 3.78125 13.8506 3.784 13.2066 3.87337C12.592 3.95862 12.328 4.10575 12.1546 4.28588C11.9813 4.46463 11.8386 4.7355 11.7546 5.36937C11.6946 5.83687 11.6746 7.08812 11.6693 8.25275C12.1906 8.25 12.7466 8.25 13.3333 8.25H18.6666C19.2546 8.25 19.8093 8.25 20.3306 8.25275ZM16 12.7188C16.2652 12.7188 16.5195 12.8274 16.7071 13.0208C16.8946 13.2142 17 13.4765 17 13.75V13.7638C18.452 14.1405 19.6666 15.3216 19.6666 16.9579C19.6666 17.2314 19.5613 17.4937 19.3737 17.6871C19.1862 17.8805 18.9318 17.9891 18.6666 17.9891C18.4014 17.9891 18.1471 17.8805 17.9595 17.6871C17.772 17.4937 17.6666 17.2314 17.6666 16.9579C17.6666 16.4299 17.0986 15.6984 16 15.6984C14.9013 15.6984 14.3333 16.4299 14.3333 16.9579C14.3333 17.4859 14.9013 18.2188 16 18.2188C17.8466 18.2188 19.6666 19.5387 19.6666 21.5421C19.6666 23.1784 18.452 24.3581 17 24.7362V24.75C17 25.0235 16.8946 25.2858 16.7071 25.4792C16.5195 25.6726 16.2652 25.7812 16 25.7812C15.7347 25.7812 15.4804 25.6726 15.2929 25.4792C15.1053 25.2858 15 25.0235 15 24.75V24.7362C13.548 24.3595 12.3333 23.1784 12.3333 21.5421C12.3333 21.2686 12.4386 21.0063 12.6262 20.8129C12.8137 20.6195 13.0681 20.5109 13.3333 20.5109C13.5985 20.5109 13.8529 20.6195 14.0404 20.8129C14.2279 21.0063 14.3333 21.2686 14.3333 21.5421C14.3333 22.0701 14.9013 22.8016 16 22.8016C17.0986 22.8016 17.6666 22.0701 17.6666 21.5421C17.6666 21.0141 17.0986 20.2812 16 20.2812C14.1533 20.2812 12.3333 18.9613 12.3333 16.9579C12.3333 15.3216 13.548 14.1405 15 13.7638V13.75C15 13.4765 15.1053 13.2142 15.2929 13.0208C15.4804 12.8274 15.7347 12.7188 16 12.7188Z" fill="#BC5242"/>
</svg>
