<svg xmlns="http://www.w3.org/2000/svg" xmlns:xlink="http://www.w3.org/1999/xlink" width="50" zoomAndPan="magnify" viewBox="0 0 37.5 32.999998" height="44" preserveAspectRatio="xMidYMid meet" version="1.0"><defs><clipPath id="1ec26b6067"><path d="M 9.582031 19.035156 L 10.917969 19.035156 L 10.917969 20.222656 L 9.582031 20.222656 Z M 9.582031 19.035156 " clip-rule="nonzero"/></clipPath><clipPath id="4e57a0f9a5"><path d="M 10.90625 19.457031 C 10.320312 20.449219 9.761719 20.253906 9.644531 20.0625 C 9.527344 19.84375 9.621094 19.261719 9.808594 19.09375 C 9.996094 18.945312 10.742188 19.164062 10.742188 19.164062 " clip-rule="nonzero"/></clipPath><clipPath id="ee09ef6cec"><path d="M 0 8 L 37 8 L 37 32.78125 L 0 32.78125 Z M 0 8 " clip-rule="nonzero"/></clipPath><clipPath id="cb2f4f6098"><path d="M 1 0.21875 L 36 0.21875 L 36 7 L 1 7 Z M 1 0.21875 " clip-rule="nonzero"/></clipPath></defs><g clip-path="url(#1ec26b6067)"><g clip-path="url(#4e57a0f9a5)"><path fill="#e7191f" d="M 8.707031 18.125 L 11.867188 18.125 L 11.867188 21.292969 L 8.707031 21.292969 Z M 8.707031 18.125 " fill-opacity="1" fill-rule="nonzero"/></g></g><path fill="#ffffff" d="M 25.039062 10.128906 L 11.910156 10.128906 C 11.5625 10.128906 11.28125 9.84375 11.28125 9.5 L 11.28125 5.476562 C 11.28125 5.128906 11.5625 4.84375 11.910156 4.84375 L 25.039062 4.84375 C 25.382812 4.84375 25.667969 5.128906 25.667969 5.476562 L 25.667969 9.5 C 25.667969 9.84375 25.382812 10.128906 25.039062 10.128906 Z M 12.539062 8.867188 L 24.40625 8.867188 L 24.40625 6.105469 L 12.539062 6.105469 Z M 12.539062 8.867188 " fill-opacity="1" fill-rule="nonzero"/><g clip-path="url(#ee09ef6cec)"><path fill="#bc5242" d="M 35.347656 14.089844 C 35.023438 11.113281 32.527344 8.867188 29.539062 8.867188 L 7.410156 8.867188 C 4.414062 8.867188 1.917969 11.113281 1.601562 14.09375 L 0.207031 29.246094 C 0.0078125 30.835938 1.367188 32.355469 2.96875 32.324219 C 2.96875 32.324219 33.984375 32.324219 33.984375 32.324219 C 34.773438 32.324219 35.523438 31.988281 36.050781 31.402344 C 36.574219 30.816406 36.835938 30.035156 36.753906 29.257812 Z M 35.347656 14.089844 " fill-opacity="1" fill-rule="nonzero"/></g><g clip-path="url(#cb2f4f6098)"><path fill="#545454" d="M 35.300781 0.46875 L 1.644531 0.46875 C 1.300781 0.46875 1.015625 0.753906 1.015625 1.101562 C 1.015625 3.863281 3.257812 6.105469 6.019531 6.105469 L 30.925781 6.105469 C 33.6875 6.105469 35.933594 3.863281 35.933594 1.101562 C 35.933594 0.753906 35.648438 0.46875 35.300781 0.46875 Z M 35.300781 0.46875 " fill-opacity="1" fill-rule="nonzero"/></g><path fill="#ffffff" d="M 18.472656 13.402344 C 14.507812 13.402344 11.28125 16.628906 11.28125 20.59375 C 11.675781 30.140625 25.277344 30.132812 25.667969 20.59375 C 25.667969 16.628906 22.441406 13.402344 18.472656 13.402344 Z M 18.472656 26.527344 C 15.203125 26.527344 12.539062 23.867188 12.539062 20.59375 C 12.863281 12.726562 24.085938 12.726562 24.40625 20.59375 C 24.40625 23.867188 21.746094 26.527344 18.472656 26.527344 Z M 18.472656 26.527344 " fill-opacity="1" fill-rule="nonzero"/><path fill="#ffffff" d="M 20.84375 17.328125 L 18.027344 20.148438 C 17.621094 20.519531 17.929688 21.246094 18.472656 21.226562 C 18.636719 21.226562 18.796875 21.164062 18.921875 21.042969 L 21.738281 18.222656 C 22.320312 17.636719 21.429688 16.75 20.84375 17.328125 Z M 20.84375 17.328125 " fill-opacity="1" fill-rule="nonzero"/></svg>