<svg xmlns="http://www.w3.org/2000/svg" xmlns:xlink="http://www.w3.org/1999/xlink" width="386" zoomAndPan="magnify" viewBox="0 0 289.5 277.499997" height="370" preserveAspectRatio="xMidYMid meet" version="1.0"><defs><clipPath id="c8e39abcda"><path d="M 257.53125 110.378906 L 259.722656 110.378906 L 259.722656 112.253906 L 257.53125 112.253906 Z M 257.53125 110.378906 " clip-rule="nonzero"/></clipPath><clipPath id="19f638d58e"><path d="M 259.71875 111.03125 C 258.71875 112.5625 257.800781 112.332031 257.644531 111.949219 C 257.414062 111.644531 257.644531 110.722656 257.875 110.492188 C 258.183594 110.261719 259.410156 110.570312 259.410156 110.570312 " clip-rule="nonzero"/></clipPath><clipPath id="328a186c93"><path d="M 175.011719 250.976562 L 177.320312 250.976562 L 177.320312 252.980469 L 175.011719 252.980469 Z M 175.011719 250.976562 " clip-rule="nonzero"/></clipPath><clipPath id="ed0214957e"><path d="M 177.3125 251.722656 C 176.328125 253.359375 175.347656 253.03125 175.101562 252.703125 C 174.9375 252.375 175.101562 251.3125 175.425781 251.066406 C 175.753906 250.820312 177.066406 251.230469 177.066406 251.230469 " clip-rule="nonzero"/></clipPath></defs><g clip-path="url(#c8e39abcda)"><g clip-path="url(#19f638d58e)"><path fill="#4e5556" d="M 254.578125 107.425781 L 262.867188 107.425781 L 262.867188 115.554688 L 254.578125 115.554688 Z M 254.578125 107.425781 " fill-opacity="1" fill-rule="nonzero"/></g></g><path fill="#009935" d="M 169.878906 207.59375 C 169.765625 207.085938 169.082031 206.984375 168.832031 207.445312 C 164.65625 215.144531 154.992188 217.332031 144.867188 222.28125 C 134.140625 227.53125 122.894531 235.890625 117.117188 257.203125 C 117.09375 257.296875 117.070312 257.386719 117.050781 257.480469 C 116.855469 258.375 117.769531 259.101562 118.59375 258.710938 C 119.476562 258.289062 120.351562 257.855469 121.226562 257.414062 C 123.414062 256.296875 125.574219 255.105469 127.707031 253.863281 C 128.773438 253.242188 129.835938 252.605469 130.886719 251.957031 C 131.941406 251.308594 132.984375 250.648438 134.023438 249.976562 C 136.097656 248.628906 138.144531 247.226562 140.152344 245.777344 C 142.160156 244.324219 144.125 242.816406 146.042969 241.242188 C 147.957031 239.664062 149.816406 238.023438 151.582031 236.28125 C 152.464844 235.40625 153.320312 234.507812 154.140625 233.574219 C 154.59375 233.050781 155.035156 232.519531 155.464844 231.972656 C 155.511719 231.910156 155.609375 231.976562 155.566406 232.046875 C 155.179688 232.628906 154.777344 233.195312 154.363281 233.75 C 153.613281 234.753906 152.820312 235.726562 152 236.671875 C 150.359375 238.5625 148.613281 240.363281 146.804688 242.097656 C 144.992188 243.832031 143.125 245.507812 141.210938 247.128906 C 139.296875 248.75 137.339844 250.324219 135.34375 251.847656 C 134.347656 252.609375 133.339844 253.359375 132.324219 254.097656 C 131.304688 254.839844 130.28125 255.566406 129.246094 256.28125 C 127.175781 257.710938 125.0625 259.09375 122.90625 260.410156 C 122.152344 260.871094 121.390625 261.324219 120.621094 261.769531 C 119.777344 262.257812 119.933594 263.53125 120.875 263.792969 C 120.882812 263.792969 120.890625 263.792969 120.898438 263.796875 C 149.511719 271.511719 177.800781 243.257812 169.878906 207.59375 Z M 14.699219 158.34375 C 14.90625 157.398438 16.175781 157.214844 16.636719 158.0625 C 24.375 172.328125 42.28125 176.378906 61.035156 185.554688 C 80.910156 195.28125 101.738281 210.761719 112.445312 250.25 C 112.492188 250.417969 112.535156 250.589844 112.570312 250.761719 C 112.929688 252.417969 111.242188 253.769531 109.714844 253.042969 C 108.078125 252.265625 106.453125 251.460938 104.835938 250.636719 C 100.78125 248.570312 96.777344 246.363281 92.828125 244.058594 C 90.851562 242.910156 88.886719 241.734375 86.9375 240.535156 C 84.984375 239.332031 83.050781 238.105469 81.128906 236.859375 C 77.28125 234.363281 73.496094 231.769531 69.773438 229.082031 C 66.054688 226.390625 62.410156 223.59375 58.859375 220.679688 C 55.3125 217.761719 51.863281 214.71875 48.59375 211.484375 C 46.960938 209.867188 45.375 208.203125 43.859375 206.46875 C 43.015625 205.503906 42.195312 204.519531 41.40625 203.507812 C 41.3125 203.390625 41.132812 203.519531 41.214844 203.644531 C 41.929688 204.714844 42.675781 205.769531 43.449219 206.804688 C 44.832031 208.660156 46.300781 210.457031 47.820312 212.210938 C 50.859375 215.714844 54.101562 219.050781 57.449219 222.265625 C 60.804688 225.480469 64.261719 228.582031 67.808594 231.582031 C 71.355469 234.585938 74.980469 237.5 78.679688 240.328125 C 80.527344 241.738281 82.394531 243.128906 84.277344 244.5 C 86.160156 245.867188 88.0625 247.214844 89.980469 248.539062 C 93.816406 251.1875 97.726562 253.75 101.722656 256.191406 C 103.121094 257.046875 104.53125 257.886719 105.953125 258.707031 C 107.515625 259.613281 107.226562 261.976562 105.484375 262.453125 C 105.46875 262.457031 105.457031 262.460938 105.441406 262.464844 C 52.433594 276.757812 0.015625 224.414062 14.699219 158.34375 " fill-opacity="1" fill-rule="nonzero"/><path fill="#4e5556" d="M 283.667969 130.941406 L 242.113281 89.386719 C 240.320312 87.597656 239.316406 85.164062 239.316406 82.632812 L 239.316406 25.9375 C 239.316406 23.628906 237.441406 21.753906 235.128906 21.753906 L 212.601562 21.753906 C 210.292969 21.753906 208.417969 23.628906 208.417969 25.9375 L 208.417969 52.183594 C 208.417969 53.480469 206.851562 54.128906 205.9375 53.214844 L 156.394531 3.671875 C 154.058594 1.332031 150.949219 0.0429688 147.640625 0.0429688 C 144.328125 0.0429688 141.222656 1.332031 138.882812 3.671875 L 11.609375 130.941406 C 8.308594 134.246094 6.984375 139.121094 8.398438 143.574219 C 10.054688 148.792969 14.824219 152.238281 20.210938 152.238281 L 44.945312 152.238281 C 44.949219 152.238281 44.949219 152.238281 44.949219 152.238281 L 44.949219 166.054688 C 44.949219 166.921875 45.464844 167.707031 46.257812 168.054688 C 47.695312 168.679688 49.171875 169.308594 50.695312 169.957031 C 53.167969 171.015625 55.691406 172.089844 58.265625 173.238281 C 59.238281 173.675781 60.339844 172.964844 60.339844 171.898438 L 60.339844 149.238281 C 60.339844 142.394531 54.792969 136.847656 47.953125 136.847656 L 27.476562 136.847656 C 27.472656 136.84375 27.472656 136.84375 27.472656 136.839844 L 147.636719 16.679688 C 147.640625 16.679688 147.640625 16.679688 147.640625 16.679688 L 208.417969 77.453125 L 208.417969 77.660156 L 209.296875 78.332031 L 267.804688 136.839844 C 267.808594 136.84375 267.808594 136.847656 267.800781 136.847656 L 247.324219 136.847656 C 240.484375 136.847656 234.9375 142.394531 234.9375 149.238281 L 234.9375 244.644531 C 234.9375 244.644531 234.9375 244.648438 234.933594 244.648438 L 176.214844 244.648438 C 174.015625 244.648438 171.984375 245.816406 170.875 247.710938 C 168.382812 251.949219 165.316406 255.847656 161.703125 259.308594 C 161.421875 259.574219 161.609375 260.039062 161.992188 260.039062 L 237.9375 260.039062 C 244.78125 260.039062 250.328125 254.492188 250.328125 247.652344 L 250.328125 152.238281 C 250.328125 152.238281 250.328125 152.238281 250.332031 152.238281 L 275.070312 152.238281 C 280.457031 152.238281 285.222656 148.792969 286.882812 143.574219 C 288.296875 139.121094 286.972656 134.246094 283.667969 130.941406 Z M 150.328125 119.996094 L 169.023438 119.996094 L 169.023438 101.296875 L 150.328125 101.296875 Z M 126.253906 119.996094 L 144.949219 119.996094 L 144.949219 101.296875 L 126.253906 101.296875 Z M 169.023438 77.660156 L 150.328125 77.660156 L 150.328125 96.359375 L 169.023438 96.359375 Z M 126.253906 77.660156 L 144.949219 77.660156 L 144.949219 96.359375 L 126.253906 96.359375 L 126.253906 77.660156 " fill-opacity="1" fill-rule="nonzero"/><g clip-path="url(#328a186c93)"><g clip-path="url(#ed0214957e)"><path fill="#4e5556" d="M 171.824219 247.789062 L 180.675781 247.789062 L 180.675781 256.472656 L 171.824219 256.472656 Z M 171.824219 247.789062 " fill-opacity="1" fill-rule="nonzero"/></g></g></svg>