<svg xmlns="http://www.w3.org/2000/svg" xmlns:xlink="http://www.w3.org/1999/xlink" width="432" zoomAndPan="magnify" viewBox="0 0 324 272.250005" height="363" preserveAspectRatio="xMidYMid meet" version="1.0"><defs><clipPath id="e69d02ba95"><path d="M 0.445312 0 L 323.554688 0 L 323.554688 271.503906 L 0.445312 271.503906 Z M 0.445312 0 " clip-rule="nonzero"/></clipPath><clipPath id="8ae2cc33f4"><path d="M 124.570312 257.699219 L 126.707031 257.699219 L 126.707031 259.527344 L 124.570312 259.527344 Z M 124.570312 257.699219 " clip-rule="nonzero"/></clipPath><clipPath id="0e78bfd2d2"><path d="M 126.699219 258.335938 C 125.726562 259.832031 124.832031 259.605469 124.679688 259.234375 C 124.457031 258.933594 124.679688 258.035156 124.90625 257.8125 C 125.203125 257.585938 126.402344 257.886719 126.402344 257.886719 " clip-rule="nonzero"/></clipPath></defs><g clip-path="url(#e69d02ba95)"><path fill="#ffffff" d="M 0.445312 0 L 323.554688 0 L 323.554688 271.503906 L 0.445312 271.503906 Z M 0.445312 0 " fill-opacity="1" fill-rule="nonzero"/><path fill="#4e5556" d="M 186.578125 264.277344 L 186.578125 198.238281 L 129.6875 198.238281 L 129.6875 264.269531 C 129.6875 264.742188 129.640625 265.207031 129.550781 265.667969 C 129.457031 266.128906 129.320312 266.574219 129.144531 267.007812 C 128.964844 267.441406 128.742188 267.855469 128.484375 268.246094 C 128.222656 268.636719 127.925781 269 127.59375 269.332031 C 127.261719 269.664062 126.902344 269.960938 126.511719 270.222656 C 126.121094 270.484375 125.710938 270.707031 125.277344 270.886719 C 124.84375 271.070312 124.398438 271.207031 123.9375 271.296875 C 123.476562 271.390625 123.011719 271.4375 122.542969 271.441406 L 47.382812 271.441406 C 46.910156 271.441406 46.445312 271.394531 45.984375 271.300781 C 45.523438 271.210938 45.074219 271.074219 44.640625 270.894531 C 44.207031 270.714844 43.792969 270.492188 43.402344 270.230469 C 43.011719 269.96875 42.648438 269.671875 42.316406 269.339844 C 41.984375 269.007812 41.6875 268.644531 41.425781 268.253906 C 41.164062 267.863281 40.945312 267.453125 40.765625 267.015625 C 40.585938 266.582031 40.449219 266.136719 40.355469 265.675781 C 40.265625 265.214844 40.21875 264.746094 40.21875 264.277344 L 40.21875 134.300781 C 40.21875 133.953125 40.25 133.609375 40.320312 133.265625 C 40.386719 132.925781 40.488281 132.59375 40.621094 132.273438 C 40.753906 131.953125 40.917969 131.648438 41.109375 131.359375 C 41.304688 131.070312 41.523438 130.800781 41.769531 130.554688 C 42.015625 130.308594 42.28125 130.089844 42.570312 129.898438 C 42.859375 129.703125 43.164062 129.539062 43.484375 129.40625 C 43.808594 129.273438 44.136719 129.175781 44.480469 129.105469 C 44.820312 129.039062 45.164062 129.003906 45.511719 129.003906 C 45.859375 129.003906 46.203125 129.039062 46.546875 129.105469 C 46.886719 129.175781 47.21875 129.273438 47.539062 129.40625 C 47.859375 129.539062 48.164062 129.703125 48.453125 129.898438 C 48.742188 130.089844 49.011719 130.308594 49.257812 130.554688 C 49.503906 130.800781 49.722656 131.070312 49.914062 131.359375 C 50.109375 131.648438 50.273438 131.953125 50.40625 132.273438 C 50.539062 132.59375 50.636719 132.925781 50.707031 133.265625 C 50.773438 133.609375 50.808594 133.953125 50.808594 134.300781 L 50.808594 260.84375 L 119.09375 260.84375 L 119.09375 194.8125 C 119.09375 194.339844 119.140625 193.875 119.234375 193.414062 C 119.324219 192.953125 119.460938 192.503906 119.640625 192.070312 C 119.824219 191.636719 120.042969 191.222656 120.304688 190.832031 C 120.566406 190.441406 120.863281 190.082031 121.195312 189.746094 C 121.527344 189.414062 121.890625 189.117188 122.28125 188.855469 C 122.671875 188.59375 123.085938 188.375 123.519531 188.195312 C 123.953125 188.015625 124.402344 187.878906 124.863281 187.785156 C 125.324219 187.695312 125.789062 187.648438 126.257812 187.648438 L 190.035156 187.648438 C 190.507812 187.648438 190.972656 187.695312 191.433594 187.785156 C 191.894531 187.878906 192.34375 188.015625 192.777344 188.195312 C 193.210938 188.375 193.625 188.59375 194.015625 188.855469 C 194.40625 189.117188 194.765625 189.414062 195.101562 189.746094 C 195.433594 190.082031 195.730469 190.441406 195.992188 190.832031 C 196.253906 191.222656 196.472656 191.636719 196.652344 192.070312 C 196.832031 192.503906 196.96875 192.953125 197.0625 193.414062 C 197.152344 193.875 197.199219 194.339844 197.199219 194.8125 L 197.199219 260.84375 L 265.488281 260.84375 L 265.488281 134.300781 C 265.488281 133.953125 265.519531 133.609375 265.589844 133.265625 C 265.65625 132.925781 265.757812 132.59375 265.890625 132.273438 C 266.023438 131.953125 266.1875 131.648438 266.378906 131.359375 C 266.574219 131.070312 266.792969 130.800781 267.039062 130.554688 C 267.285156 130.308594 267.550781 130.089844 267.839844 129.898438 C 268.128906 129.703125 268.433594 129.539062 268.757812 129.40625 C 269.078125 129.273438 269.410156 129.175781 269.75 129.105469 C 270.089844 129.039062 270.433594 129.003906 270.78125 129.003906 C 271.128906 129.003906 271.472656 129.039062 271.816406 129.105469 C 272.15625 129.175781 272.488281 129.273438 272.808594 129.40625 C 273.128906 129.539062 273.433594 129.703125 273.722656 129.898438 C 274.011719 130.089844 274.28125 130.308594 274.527344 130.554688 C 274.773438 130.800781 274.992188 131.070312 275.183594 131.359375 C 275.378906 131.648438 275.542969 131.953125 275.675781 132.273438 C 275.808594 132.59375 275.910156 132.925781 275.976562 133.265625 C 276.042969 133.609375 276.078125 133.953125 276.078125 134.300781 L 276.078125 264.277344 C 276.078125 264.746094 276.03125 265.214844 275.9375 265.675781 C 275.847656 266.136719 275.710938 266.582031 275.53125 267.015625 C 275.351562 267.453125 275.128906 267.863281 274.867188 268.253906 C 274.605469 268.644531 274.308594 269.007812 273.976562 269.339844 C 273.644531 269.671875 273.285156 269.96875 272.894531 270.230469 C 272.5 270.492188 272.089844 270.714844 271.65625 270.894531 C 271.21875 271.074219 270.773438 271.210938 270.3125 271.300781 C 269.851562 271.394531 269.382812 271.441406 268.914062 271.441406 L 193.746094 271.441406 C 193.277344 271.441406 192.808594 271.394531 192.347656 271.304688 C 191.886719 271.210938 191.4375 271.074219 191.003906 270.894531 C 190.570312 270.714844 190.15625 270.496094 189.765625 270.234375 C 189.375 269.972656 189.011719 269.675781 188.679688 269.34375 C 188.347656 269.011719 188.050781 268.648438 187.789062 268.257812 C 187.527344 267.867188 187.304688 267.453125 187.125 267.019531 C 186.945312 266.585938 186.808594 266.136719 186.714844 265.675781 C 186.625 265.214844 186.578125 264.746094 186.578125 264.277344 Z M 314.203125 139.453125 C 314.460938 139.714844 314.746094 139.945312 315.054688 140.144531 C 315.363281 140.347656 315.6875 140.515625 316.03125 140.648438 C 316.375 140.78125 316.726562 140.878906 317.089844 140.9375 C 317.453125 140.996094 317.820312 141.019531 318.1875 141.003906 C 318.554688 140.988281 318.914062 140.933594 319.273438 140.839844 C 319.628906 140.75 319.972656 140.621094 320.300781 140.457031 C 320.632812 140.292969 320.941406 140.097656 321.230469 139.871094 C 321.519531 139.644531 321.78125 139.386719 322.015625 139.105469 C 322.253906 138.824219 322.457031 138.519531 322.628906 138.195312 C 322.800781 137.871094 322.9375 137.53125 323.039062 137.175781 C 323.140625 136.824219 323.207031 136.460938 323.230469 136.09375 C 323.257812 135.726562 323.246094 135.363281 323.199219 134.996094 C 323.148438 134.632812 323.0625 134.277344 322.9375 133.929688 C 322.8125 133.585938 322.65625 133.253906 322.464844 132.941406 C 322.269531 132.628906 322.046875 132.335938 321.792969 132.070312 C 321.542969 131.804688 321.261719 131.566406 320.960938 131.355469 L 166.433594 2.25 C 166.113281 1.980469 165.773438 1.742188 165.410156 1.535156 C 165.050781 1.328125 164.671875 1.152344 164.28125 1.011719 C 163.890625 0.871094 163.488281 0.761719 163.078125 0.691406 C 162.667969 0.617188 162.253906 0.582031 161.839844 0.582031 C 161.421875 0.582031 161.007812 0.617188 160.597656 0.691406 C 160.1875 0.761719 159.789062 0.871094 159.394531 1.011719 C 159.003906 1.152344 158.628906 1.328125 158.265625 1.535156 C 157.90625 1.742188 157.566406 1.980469 157.246094 2.25 L 2.71875 131.355469 C 2.449219 131.578125 2.207031 131.824219 1.988281 132.097656 C 1.769531 132.367188 1.582031 132.65625 1.421875 132.964844 C 1.257812 133.273438 1.128906 133.59375 1.03125 133.925781 C 0.933594 134.261719 0.867188 134.601562 0.835938 134.945312 C 0.804688 135.292969 0.808594 135.640625 0.847656 135.984375 C 0.882812 136.332031 0.953125 136.667969 1.058594 137 C 1.160156 137.332031 1.296875 137.652344 1.464844 137.957031 C 1.628906 138.261719 1.824219 138.550781 2.046875 138.816406 C 2.269531 139.082031 2.515625 139.324219 2.789062 139.542969 C 3.058594 139.761719 3.347656 139.953125 3.65625 140.113281 C 3.964844 140.273438 4.285156 140.402344 4.617188 140.503906 C 4.953125 140.601562 5.292969 140.664062 5.636719 140.695312 C 5.984375 140.726562 6.332031 140.722656 6.675781 140.6875 C 7.023438 140.648438 7.363281 140.578125 7.695312 140.476562 C 8.023438 140.371094 8.34375 140.238281 8.648438 140.070312 C 8.953125 139.902344 9.242188 139.707031 9.507812 139.484375 L 161.839844 12.207031 Z M 212.46875 17.882812 L 252.582031 17.882812 L 252.582031 58 C 252.582031 58.347656 252.617188 58.691406 252.683594 59.03125 C 252.753906 59.371094 252.851562 59.703125 252.988281 60.023438 C 253.121094 60.347656 253.28125 60.652344 253.476562 60.941406 C 253.667969 61.230469 253.886719 61.496094 254.132812 61.742188 C 254.378906 61.988281 254.648438 62.207031 254.9375 62.402344 C 255.226562 62.59375 255.53125 62.757812 255.851562 62.890625 C 256.171875 63.023438 256.503906 63.125 256.84375 63.191406 C 257.1875 63.261719 257.53125 63.292969 257.878906 63.292969 C 258.226562 63.292969 258.570312 63.261719 258.910156 63.191406 C 259.253906 63.125 259.585938 63.023438 259.90625 62.890625 C 260.226562 62.757812 260.53125 62.59375 260.820312 62.402344 C 261.109375 62.207031 261.378906 61.988281 261.625 61.742188 C 261.867188 61.496094 262.089844 61.230469 262.28125 60.941406 C 262.476562 60.652344 262.636719 60.347656 262.769531 60.023438 C 262.902344 59.703125 263.003906 59.371094 263.074219 59.03125 C 263.140625 58.691406 263.175781 58.347656 263.175781 58 L 263.175781 14.457031 C 263.175781 13.984375 263.128906 13.519531 263.035156 13.058594 C 262.945312 12.597656 262.808594 12.148438 262.628906 11.714844 C 262.445312 11.28125 262.226562 10.867188 261.964844 10.476562 C 261.703125 10.085938 261.40625 9.726562 261.074219 9.394531 C 260.742188 9.058594 260.378906 8.761719 259.988281 8.5 C 259.597656 8.242188 259.183594 8.019531 258.75 7.839844 C 258.316406 7.660156 257.867188 7.523438 257.40625 7.429688 C 256.945312 7.339844 256.480469 7.292969 256.011719 7.292969 L 212.46875 7.292969 C 212.121094 7.292969 211.777344 7.328125 211.433594 7.394531 C 211.09375 7.460938 210.761719 7.5625 210.441406 7.695312 C 210.121094 7.828125 209.8125 7.992188 209.523438 8.183594 C 209.234375 8.378906 208.96875 8.597656 208.722656 8.84375 C 208.476562 9.089844 208.257812 9.355469 208.0625 9.644531 C 207.871094 9.933594 207.707031 10.238281 207.574219 10.5625 C 207.441406 10.882812 207.339844 11.214844 207.273438 11.554688 C 207.203125 11.894531 207.171875 12.238281 207.171875 12.589844 C 207.171875 12.9375 207.203125 13.28125 207.273438 13.621094 C 207.339844 13.960938 207.441406 14.292969 207.574219 14.613281 C 207.707031 14.9375 207.871094 15.242188 208.0625 15.53125 C 208.257812 15.820312 208.476562 16.085938 208.722656 16.332031 C 208.96875 16.578125 209.234375 16.796875 209.523438 16.992188 C 209.8125 17.183594 210.121094 17.347656 210.441406 17.480469 C 210.761719 17.613281 211.09375 17.714844 211.433594 17.78125 C 211.777344 17.851562 212.121094 17.882812 212.46875 17.882812 Z M 212.46875 17.882812 " fill-opacity="1" fill-rule="nonzero"/></g><g clip-path="url(#8ae2cc33f4)"><g clip-path="url(#0e78bfd2d2)"><path fill="#4e5556" d="M 121.6875 254.820312 L 129.773438 254.820312 L 129.773438 262.746094 L 121.6875 262.746094 Z M 121.6875 254.820312 " fill-opacity="1" fill-rule="nonzero"/></g></g></svg>