<svg xmlns="http://www.w3.org/2000/svg" xmlns:xlink="http://www.w3.org/1999/xlink" width="432" zoomAndPan="magnify" viewBox="0 0 324 294.749989" height="393" preserveAspectRatio="xMidYMid meet" version="1.0"><defs><clipPath id="fe4fdab2ed"><path d="M 39 71 L 286 71 L 286 294.5 L 39 294.5 Z M 39 71 " clip-rule="nonzero"/></clipPath><clipPath id="627406726c"><path d="M 247.484375 206.210938 L 250.292969 206.210938 L 250.292969 210.082031 L 247.484375 210.082031 Z M 247.484375 206.210938 " clip-rule="nonzero"/></clipPath><clipPath id="b7cc8ffbf5"><path d="M 250.273438 208.917969 C 248.402344 209.894531 248.101562 208.46875 248.328125 208.171875 C 248.550781 207.945312 249.902344 208.171875 250.125 208.46875 C 250.351562 208.695312 250.273438 209.292969 250.050781 209.519531 C 249.902344 209.820312 249.226562 210.195312 248.851562 210.042969 C 248.328125 209.894531 247.503906 208.546875 247.503906 207.945312 C 247.503906 207.347656 247.953125 206.523438 248.402344 206.296875 C 248.851562 206.070312 250.273438 206.597656 250.273438 206.597656 " clip-rule="nonzero"/></clipPath></defs><path fill="#ffffff" d="M 310.277344 103.324219 L 260.449219 66.671875 L 260.449219 22.953125 C 260.449219 16.097656 254.886719 10.554688 248.042969 10.554688 L 227.875 10.554688 C 221.019531 10.554688 215.46875 16.105469 215.46875 22.953125 L 215.46875 33.574219 L 177.476562 5.632812 C 169.234375 -0.445312 155.738281 -0.445312 147.496094 5.632812 L 14.695312 103.324219 C 6.453125 109.390625 4.675781 121.109375 10.742188 129.363281 L 14.414062 134.34375 C 20.472656 142.597656 32.191406 144.382812 40.421875 138.316406 L 147.496094 59.515625 C 155.738281 53.449219 169.234375 53.449219 177.476562 59.515625 L 284.539062 138.316406 C 292.78125 144.382812 304.488281 142.585938 310.546875 134.34375 L 314.226562 129.363281 C 320.285156 121.109375 318.511719 109.390625 310.277344 103.324219 Z M 310.277344 103.324219 " fill-opacity="1" fill-rule="nonzero"/><g clip-path="url(#fe4fdab2ed)"><path fill="#ffffff" d="M 270.546875 145.167969 L 177.445312 76.363281 C 169.214844 70.273438 155.757812 70.273438 147.523438 76.363281 L 54.421875 145.167969 C 46.191406 151.257812 39.453125 160.160156 39.453125 164.984375 L 39.453125 264.746094 C 39.453125 280.941406 53.335938 294.078125 70.472656 294.078125 L 127.328125 294.078125 L 127.328125 205.832031 C 127.328125 199.015625 132.910156 193.441406 139.726562 193.441406 L 185.222656 193.441406 C 192.039062 193.441406 197.621094 199.015625 197.621094 205.832031 L 197.621094 294.078125 L 254.488281 294.078125 C 271.613281 294.078125 285.488281 280.941406 285.488281 264.746094 L 285.488281 164.984375 C 285.5 160.160156 278.78125 151.257812 270.546875 145.167969 Z M 270.546875 145.167969 " fill-opacity="1" fill-rule="nonzero"/></g><g clip-path="url(#627406726c)"><g clip-path="url(#b7cc8ffbf5)"><path fill="#ffffff" d="M 244.503906 203.300781 L 253.273438 203.300781 L 253.273438 213.027344 L 244.503906 213.027344 Z M 244.503906 203.300781 " fill-opacity="1" fill-rule="nonzero"/></g></g></svg>